# xmcd
# 
# Track frame offsets:
#     150
#     14980
#     29179
#     42890
#     56879
#     70617
#     81526
#     95529
#     108270
#     121680
#     136821
#     150283
#     163822
#     178798
#     192349
#     207755
#     222391
#     236504
#     250127
#     263533
#     277158
#     291786
#     303038
#     316217
#     329977
# 
# Disc length: 4584
# 
# Revision: 0
# Processed by: cddbd v1.5.2PL0 Copyright (c) Steve Scherf et al.
# Submitted via: fre:ac v1.0.27
# 
DISCID=7611e619
DTITLE=Various Artist - Sounds Like Jimmie Rodgers Disc C
DYEAR=2005
DGENRE=Country
TTITLE0=The Texas Drifter - The Drifter - Part 1
TTITLE1=The Texas Drifter - The Drifter - Part 2
TTITLE2=The Texas Drifter - At the End of the Hobo's Trail
TTITLE3=The Texas Drifter - The Oklahoma Kid
TTITLE4=The Taxes Drifter - I Learned About Women from Her
TTITLE5=The Texas Drifter - The Hobo's Last Letter
TTITLE6=The Texas Drifter - Station H.O.B.O.
TTITLE7=The Texas Drifter - Railroad Boomer
TTITLE8=The Texas Drifter - The Tramp's Mother
TTITLE9=The Texas Drifter - Mother-in-Law Blues
TTITLE10=The Texas Drifter - Fortunes Galore
TTITLE11=The Texas Drifter - Little Joe The Wrangler
TTITLE12=The Texas Drifter - John Law and the Hobo
TTITLE13=The Texas Drifter - The Prisoner's Song
TTITLE14=The Texas Drifter - Cowboy's Lullabye
TTITLE15=The Texas Drifter - The Wayward Son
TTITLE16=The Texas Drifter - Reckless Tex
TTITLE17=The Texas Drifter - Miss Jackson Tennessee
TTITLE18=The Texas Drifter - The Yodelin' Teacher
TTITLE19=Bill Cox - Jackson County
TTITLE20=Bill Cox - When We Meet On The Beautiful Shore
TTITLE21=Bill Cox - My Rough and Rowdy Ways
TTITLE22=Bill Cox - A High Silk Hat and a Gold Top Walking Can
TTITLE23=Bill Cox - Lay My Head Beneath the Rose
TTITLE24=Bill Cox - Where the Red. Red Roses Grow
EXTD=
EXTT0=
EXTT1=
EXTT2=
EXTT3=
EXTT4=
EXTT5=
EXTT6=
EXTT7=
EXTT8=
EXTT9=
EXTT10=
EXTT11=
EXTT12=
EXTT13=
EXTT14=
EXTT15=
EXTT16=
EXTT17=
EXTT18=
EXTT19=
EXTT20=
EXTT21=
EXTT22=
EXTT23=
EXTT24=
PLAYORDER=
